<mxfile host="app.diagrams.net" modified="2022-04-08T06:20:04.820Z" agent="5.0 (Macintosh; Intel Mac OS X 10_15_7) AppleWebKit/537.36 (KHTML, like Gecko) Chrome/100.0.4896.60 Safari/537.36" etag="JDix_YL5S6K1eRJDcxxF" version="17.4.1" type="github">
  <diagram id="6Wr7HWto9CDt8bVIGJbJ" name="Page-1">
    <mxGraphModel dx="897" dy="589" grid="1" gridSize="10" guides="1" tooltips="1" connect="1" arrows="1" fold="1" page="1" pageScale="1" pageWidth="827" pageHeight="1169" math="0" shadow="0">
      <root>
        <mxCell id="0" />
        <mxCell id="1" parent="0" />
        <mxCell id="A0T9e2R4MkHRRVcpy_gM-1" value="统一鉴权&lt;br&gt;user-center" style="rounded=1;whiteSpace=wrap;html=1;" vertex="1" parent="1">
          <mxGeometry x="260" y="110" width="120" height="60" as="geometry" />
        </mxCell>
        <mxCell id="A0T9e2R4MkHRRVcpy_gM-2" value="数据接入工具&lt;br&gt;data-docking" style="rounded=1;whiteSpace=wrap;html=1;" vertex="1" parent="1">
          <mxGeometry x="230" y="290" width="120" height="60" as="geometry" />
        </mxCell>
        <mxCell id="A0T9e2R4MkHRRVcpy_gM-4" style="edgeStyle=orthogonalEdgeStyle;rounded=0;orthogonalLoop=1;jettySize=auto;html=1;entryX=0;entryY=0.5;entryDx=0;entryDy=0;" edge="1" parent="1" source="A0T9e2R4MkHRRVcpy_gM-3" target="A0T9e2R4MkHRRVcpy_gM-2">
          <mxGeometry relative="1" as="geometry" />
        </mxCell>
        <mxCell id="A0T9e2R4MkHRRVcpy_gM-3" value="资产数据对接" style="shape=cylinder3;whiteSpace=wrap;html=1;boundedLbl=1;backgroundOutline=1;size=15;" vertex="1" parent="1">
          <mxGeometry x="50" y="280" width="60" height="80" as="geometry" />
        </mxCell>
        <mxCell id="A0T9e2R4MkHRRVcpy_gM-5" value="中央数据仓&lt;br&gt;robin-hood" style="rounded=1;whiteSpace=wrap;html=1;" vertex="1" parent="1">
          <mxGeometry x="470" y="290" width="120" height="60" as="geometry" />
        </mxCell>
      </root>
    </mxGraphModel>
  </diagram>
</mxfile>
